<?xml version="1.0" encoding="UTF-8" standalone="no"?>
<svg
   xmlns:dc="http://purl.org/dc/elements/1.1/"
   xmlns:cc="http://creativecommons.org/ns#"
   xmlns:rdf="http://www.w3.org/1999/02/22-rdf-syntax-ns#"
   xmlns:svg="http://www.w3.org/2000/svg"
   xmlns="http://www.w3.org/2000/svg"
   viewBox="0 0 512 301"
   height="301"
   width="512"
   id="svg1750"
   version="1.1">
  <metadata
     id="metadata1756">
    <rdf:RDF>
      <cc:Work
         rdf:about="">
        <dc:format>image/svg+xml</dc:format>
        <dc:type
           rdf:resource="http://purl.org/dc/dcmitype/StillImage" />
        <dc:title></dc:title>
      </cc:Work>
    </rdf:RDF>
  </metadata>
  <defs
     id="defs1754" />
  <g
     id="g1758">
    <path
       id="path2323"
       d="m 146.24086,299.0054 c -1.79253,-1.09292 -4.15334,-3.45373 -5.24626,-5.24626 -1.92654,-3.15977 -1.98724,-5.15719 -1.99086,-65.50914 L 139,166 111.75,165.9436 c -18.406681,-0.0381 -28.355039,-0.44378 -30.655092,-1.25 -1.8728,-0.65646 -4.774236,-2.89372 -6.447635,-4.97168 -2.522401,-3.13223 -3.051497,-4.70059 -3.094909,-9.17402 -0.05666,-5.83913 1.677295,-9.13563 6.830693,-12.98607 2.614853,-1.95373 4.275668,-2.07716 31.688213,-2.35507 L 139,134.91344 V 116.45672 98 l -44.75,-0.0016 C 44.393249,97.996715 44.920372,98.063736 40.294281,91.138247 36.722505,85.79112 36.409538,81.760458 39.140165,76.274535 43.626419,67.261496 41.937155,67.541847 93.75,67.211472 L 139,66.922944 V 48.461472 30 H 76.647883 14.295766 L 10.951949,27.746602 C 6.2712211,24.59226 3.6723908,19.717061 3.7551013,14.245889 3.8323384,9.1367727 5.8941477,5.7180915 10.989831,2.25 L 14.295766,0 255.89788,0.00373806 c 239.31675,0.0037027 241.63295,0.02253468 244.86126,1.99085994 1.79253,1.0929171 4.15334,3.4537349 5.24626,5.246262 1.95787,3.211158 1.98718,5.325877 1.99086,143.64111 0.004,139.00583 -0.016,140.41393 -2.01202,143.64353 -4.3172,6.98537 10.09049,6.47491 -182.63537,6.47076 -171.70985,-0.004 -173.88897,-0.0282 -177.10801,-1.99086 z m 260.77927,-77.48527 -49.47229,-49.47986 -13.52392,13.36707 c -11.81021,11.67323 -14.04638,13.45314 -17.64699,14.04632 -6.61482,1.08975 -10.53451,-1.30283 -24.09121,-14.70527 l -12.33597,-12.1956 -49.22361,49.2236 L 191.50254,271 H 323.99748 456.49242 Z M 478,150.25379 V 51.507576 l -49.50002,49.492444 -49.50002,49.49244 49.24623,49.25377 C 455.33162,226.8358 477.60663,249 477.74621,249 477.8858,249 478,204.5642 478,150.25379 Z M 219.25385,101.75381 C 192.44344,74.939213 170.39343,53 170.25383,53 170.11422,53 170,96.985778 170,150.74617 v 97.74618 l 49.00002,-48.99237 49.00002,-48.99237 z M 390.5,96 456.49432,30 H 324 191.50568 L 257.5,96 c 36.29687,36.3 66.22187,66 66.5,66 0.27813,0 30.20313,-29.7 66.5,-66 z"
       style="fill:#5995fd;fill-opacity:1" />
  </g>
</svg>
